<svg width="198" height="41" viewBox="0 0 198 41" fill="none" xmlns="http://www.w3.org/2000/svg">
<path d="M108.694 34.3681H111.526V34.6833C111.205 34.7098 110.953 34.7446 110.828 34.8647C110.704 34.9563 110.631 35.1423 110.631 35.4154V39.8006C110.631 40.0498 110.704 40.2377 110.828 40.3577C110.953 40.4521 111.177 40.5125 111.526 40.5125V40.8506H108.694V40.5125C109.016 40.5125 109.271 40.4521 109.397 40.3577C109.522 40.2377 109.592 40.0498 109.592 39.8006V35.4154C109.592 35.1423 109.522 34.9563 109.397 34.8647C109.233 34.7446 109.016 34.7098 108.694 34.6833V34.3681ZM164.537 34.6833C164.859 34.7098 165.073 34.7446 165.24 34.8647C165.364 34.9563 165.435 35.1423 165.435 35.4154V39.8006C165.435 40.0498 165.364 40.2377 165.24 40.3577C165.113 40.4521 164.859 40.5125 164.537 40.5125V40.8506H167.368V40.5125C167.019 40.5125 166.796 40.4521 166.669 40.3577C166.546 40.2377 166.473 40.0498 166.473 39.8006V35.4154C166.473 35.1423 166.546 34.9563 166.669 34.8647C166.796 34.7446 167.047 34.7098 167.368 34.6833V34.3681H164.537V34.6833ZM117.521 34.6833C117.807 34.6833 118.027 34.7446 118.183 34.8647C118.314 34.982 118.38 35.2009 118.38 35.4795V39.1253L114.411 34.3681H112.602V34.6833C112.793 34.7098 112.946 34.7446 113.111 34.8024C113.239 34.8647 113.364 34.9563 113.428 35.047V39.7731C113.428 40.0205 113.364 40.2377 113.239 40.3577C113.111 40.4777 112.917 40.5125 112.629 40.5125H112.602V40.8506H114.925V40.5125H114.859C114.569 40.5125 114.35 40.4777 114.219 40.3577C114.095 40.2377 114.028 40.0205 114.028 39.7731V35.5106L118.631 40.967H118.988V35.4795C118.988 35.2009 119.045 35.0195 119.205 34.8949C119.329 34.7648 119.527 34.7098 119.804 34.6833V34.3681H117.521V34.6833ZM147.101 34.6833C147.386 34.6833 147.606 34.7446 147.762 34.8647C147.89 34.982 147.961 35.2009 147.961 35.4795V39.1253L143.99 34.3681H142.18V34.6833C142.371 34.7098 142.523 34.7446 142.69 34.8024C142.817 34.8647 142.943 34.9563 143.006 35.047V39.7731C143.006 40.0205 142.943 40.2377 142.817 40.3577C142.69 40.4777 142.497 40.5125 142.207 40.5125H142.18V40.8506H144.503V40.5125H144.436C144.148 40.5125 143.928 40.4777 143.798 40.3577C143.674 40.2377 143.607 40.0205 143.607 39.7731V35.5106L148.21 40.967H148.566V35.4795C148.566 35.2009 148.626 35.0195 148.785 34.8949C148.907 34.7648 149.104 34.7098 149.382 34.6833V34.3681H147.101V34.6833ZM180.485 34.6833C180.771 34.6833 180.99 34.7446 181.148 34.8647C181.279 34.982 181.343 35.2009 181.343 35.4795V39.1253L177.375 34.3681H175.565V34.6833C175.756 34.7098 175.91 34.7446 176.074 34.8024C176.202 34.8647 176.328 34.9563 176.391 35.047V39.7731C176.391 40.0205 176.328 40.2377 176.202 40.3577C176.074 40.4777 175.88 40.5125 175.593 40.5125H175.565V40.8506H177.891V40.5125H177.823C177.531 40.5125 177.313 40.4777 177.183 40.3577C177.059 40.2377 176.993 40.0205 176.993 39.7731V35.5106L181.594 40.967H181.951V35.4795C181.951 35.2009 182.01 35.0195 182.17 34.8949C182.292 34.7648 182.489 34.7098 182.767 34.6833V34.3681H180.485V34.6833ZM120.918 34.3681L120.821 35.9688H121.174C121.264 35.5391 121.388 35.2321 121.616 35.0782C121.839 34.927 122.154 34.8299 122.627 34.8299H123.337V39.8006C123.337 40.0498 123.269 40.2377 123.138 40.3577C123.011 40.4777 122.762 40.5125 122.439 40.5437V40.8506H125.266V40.5125C124.945 40.5125 124.723 40.4521 124.568 40.3577C124.439 40.2377 124.381 40.0498 124.381 39.8006V34.8299H125.074C125.551 34.8299 125.9 34.927 126.085 35.0782C126.314 35.2321 126.471 35.5391 126.568 35.9688H126.916L126.788 34.3681H120.918ZM157.504 34.3681L157.405 35.9688H157.758C157.85 35.5391 157.975 35.2321 158.204 35.0782C158.427 34.927 158.74 34.8299 159.213 34.8299H159.924V39.8006C159.924 40.0498 159.853 40.2377 159.723 40.3577C159.598 40.4777 159.347 40.5125 159.025 40.5437V40.8506H161.854V40.5125C161.53 40.5125 161.311 40.4521 161.154 40.3577C161.023 40.2377 160.966 40.0498 160.966 39.8006V34.8299H161.661C162.138 34.8299 162.488 34.927 162.673 35.0782C162.901 35.2321 163.058 35.5391 163.153 35.9688H163.502L163.374 34.3681H157.504ZM156.889 40.3275C157.08 40.4521 157.267 40.5125 157.527 40.5125V40.8506H154.569V40.5125C154.852 40.5125 155.081 40.4777 155.173 40.3925C155.302 40.3275 155.369 40.2065 155.369 40.0801C155.369 39.9894 155.369 39.9298 155.328 39.8373C155.328 39.7475 155.302 39.6513 155.232 39.5908L154.852 38.7341H153.463H152.064L151.684 39.5615C151.652 39.6513 151.62 39.7475 151.62 39.8006C151.584 39.9023 151.584 39.9545 151.584 40.0205C151.584 40.1735 151.62 40.2633 151.747 40.3577C151.845 40.4191 152.064 40.4777 152.347 40.5125V40.8506H150.033V40.5125C150.257 40.5125 150.414 40.4191 150.574 40.3275C150.703 40.2065 150.82 40.0205 150.952 39.7475C150.952 39.7475 152.986 35.5656 153.463 34.5916C153.526 34.4322 153.557 34.3681 153.557 34.3681H153.968L156.445 39.7172C156.605 39.9894 156.726 40.2065 156.889 40.3275ZM154.605 38.177L153.502 35.6563C153.502 35.6563 153.502 35.7214 153.463 35.7864C153.241 36.2446 152.283 38.177 152.283 38.177H153.463H154.605ZM190.134 40.3275C190.323 40.4521 190.51 40.5125 190.768 40.5125V40.8506H187.811V40.5125C188.095 40.5125 188.321 40.4777 188.417 40.3925C188.543 40.3275 188.613 40.2065 188.613 40.0801C188.613 39.9894 188.613 39.9298 188.573 39.8373C188.573 39.7475 188.543 39.6513 188.474 39.5908L188.095 38.7341H186.706H185.306L184.924 39.5615C184.895 39.6513 184.863 39.7475 184.863 39.8006C184.829 39.9023 184.829 39.9545 184.829 40.0205C184.829 40.1735 184.863 40.2633 184.99 40.3577C185.086 40.4191 185.306 40.4777 185.588 40.5125V40.8506H183.275V40.5125C183.5 40.5125 183.657 40.4191 183.817 40.3275C183.944 40.2065 184.063 40.0205 184.191 39.7475C184.191 39.7475 186.23 35.5656 186.706 34.5916C186.769 34.4322 186.8 34.3681 186.8 34.3681H187.212L189.688 39.7172C189.849 39.9894 189.97 40.2065 190.134 40.3275ZM187.848 38.177L186.744 35.6563C186.744 35.6563 186.744 35.7214 186.706 35.7864C186.482 36.2446 185.528 38.177 185.528 38.177H186.706H187.848ZM173.968 35.179C174.624 35.8176 174.949 36.6147 174.949 37.5704C174.949 38.5536 174.622 39.3709 173.962 40.0214C173.298 40.6692 172.497 40.9954 171.559 40.9954C170.611 40.9954 169.811 40.6784 169.167 40.0453C168.522 39.4112 168.196 38.5902 168.196 37.5842C168.196 36.5561 168.569 35.7177 169.315 35.0681C169.963 34.5028 170.739 34.2215 171.642 34.2215C172.535 34.2215 173.312 34.5394 173.968 35.179ZM173.77 37.6978C173.77 36.6257 173.537 35.8277 173.078 35.3008C172.707 34.8821 172.197 34.6732 171.545 34.6732C170.932 34.6732 170.443 34.8821 170.071 35.2962C169.611 35.8139 169.379 36.5708 169.379 37.5686C169.379 38.5893 169.618 39.3745 170.096 39.9252C170.464 40.3421 170.947 40.5519 171.55 40.5519C172.19 40.5519 172.722 40.3229 173.141 39.8647C173.558 39.4057 173.77 38.6846 173.77 37.6978ZM132.73 40.2661C132.455 40.4466 132.195 40.5125 131.717 40.5125H130.871C130.522 40.5125 130.298 40.4521 130.173 40.3577C130.05 40.2377 129.978 40.0498 129.978 39.8006V37.6327H131.292C131.57 37.6327 131.778 37.6648 131.915 37.728C132.048 37.7922 132.147 37.8801 132.206 37.991C132.251 38.0817 132.298 38.2842 132.345 38.5975H132.716V36.3417H132.345C132.322 36.7119 132.23 36.9693 132.055 37.1159C131.927 37.2277 131.675 37.2836 131.292 37.2836H129.978V36.853V35.4154V34.6833H131.485C131.962 34.6833 132.312 34.7776 132.497 34.9306C132.723 35.0855 132.881 35.5391 132.977 35.9688H133.325L133.197 34.3681H129.978H129.706H128.042V34.6833C128.365 34.7098 128.578 34.7446 128.743 34.8647C128.867 34.9563 128.94 35.1423 128.94 35.4154V39.8006C128.94 40.0498 128.867 40.2377 128.743 40.3577C128.618 40.4521 128.365 40.5125 128.042 40.5125V40.8506H130.871V40.8461H133.197L133.785 39.2453H133.437C133.124 39.8373 133.003 40.0837 132.73 40.2661ZM196.206 40.2661C195.932 40.4466 195.674 40.5125 195.194 40.5125H194.35C194.001 40.5125 193.778 40.4521 193.651 40.3577C193.527 40.2377 193.457 40.0498 193.457 39.8006V35.4154C193.457 35.1423 193.527 34.9563 193.651 34.8647C193.778 34.7446 194.028 34.7098 194.35 34.6833V34.3681H191.521V34.6833C191.84 34.7098 192.056 34.7446 192.221 34.8647C192.347 34.9563 192.418 35.1423 192.418 35.4154V39.8006C192.418 40.0498 192.347 40.2377 192.221 40.3577C192.095 40.4521 191.84 40.5125 191.521 40.5125V40.8506H194.35V40.8461H196.675L197.261 39.2453H196.913C196.601 39.8373 196.48 40.0837 196.206 40.2661ZM140.527 40.245C140.754 40.3861 141.091 40.4741 141.457 40.5125V40.8461H139.669L137.404 37.8187H136.733V39.8006C136.733 40.0498 136.803 40.2377 136.926 40.3577C137.054 40.4521 137.279 40.5125 137.625 40.5125V40.8506H134.795V40.5125C135.117 40.5125 135.372 40.4521 135.496 40.3577C135.621 40.2377 135.693 40.0498 135.693 39.8006V35.4154C135.693 35.1423 135.621 34.9563 135.496 34.8647C135.333 34.7446 135.117 34.7098 134.795 34.6833V34.3681H136.733L137.234 34.369C137.946 34.369 138.47 34.4194 138.808 34.5202C139.146 34.62 139.433 34.8042 139.667 35.0736C139.902 35.343 140.021 35.6637 140.021 36.0357C140.021 36.4352 139.887 36.7806 139.617 37.0738C139.349 37.367 138.932 37.5732 138.371 37.6941L139.712 39.3956C140.026 39.8208 140.298 40.1057 140.527 40.245ZM138.424 37.1214C138.747 36.853 138.909 36.513 138.909 36.0989C138.909 35.693 138.778 35.365 138.517 35.1121C138.255 34.8601 137.909 34.6833 137.479 34.6833H136.733V35.4154V36.4397V37.5173C136.81 37.5182 136.951 37.5228 136.978 37.5228C137.617 37.5228 138.099 37.3881 138.424 37.1214ZM12.7406 34.6833C13.0589 34.7089 13.2777 34.7428 13.3998 34.8647C13.5675 34.9563 13.6281 35.1423 13.6281 35.4154V37.1975H10.2345V35.4154C10.2345 35.1423 10.2923 34.9563 10.4173 34.8647C10.5868 34.7428 10.8018 34.7089 11.1191 34.6833V34.3681H8.35917V34.6833C8.6793 34.7089 8.86115 34.7428 8.99469 34.8647C9.12066 34.9563 9.18412 35.1423 9.18412 35.4154V39.8006C9.18412 40.0507 9.12066 40.2377 8.99469 40.3586C8.86115 40.4539 8.6793 40.5144 8.35917 40.5144V40.8525H11.1191V40.5437C10.8018 40.5144 10.5868 40.4786 10.4173 40.3586C10.2923 40.2377 10.2345 40.0507 10.2345 39.8006V37.717H13.6281V39.8006C13.6281 40.0801 13.5675 40.2633 13.4349 40.3586C13.2777 40.4539 13.0589 40.5144 12.7406 40.5437V40.8525H15.5025V40.5144C15.1842 40.5144 14.9636 40.4539 14.8347 40.3586C14.7097 40.2377 14.6434 40.0507 14.6434 39.8006V35.4154C14.6434 35.1423 14.7097 34.9563 14.8347 34.8647C14.9636 34.7428 15.1842 34.7089 15.5025 34.6833V34.3681H12.7406V34.6833ZM16.5756 34.6833C16.8976 34.7089 17.1126 34.7428 17.2793 34.8647C17.4034 34.9563 17.4744 35.1423 17.4744 35.4154V39.8006C17.4744 40.0507 17.4034 40.2377 17.2793 40.3586C17.1524 40.4539 16.8976 40.5144 16.5756 40.5144V40.8525H19.4066V40.5144C19.0571 40.5144 18.8326 40.4539 18.7085 40.3586C18.5835 40.2377 18.5125 40.0507 18.5125 39.8006V35.4154C18.5125 35.1423 18.5835 34.9563 18.7085 34.8647C18.8326 34.7428 19.0864 34.7089 19.4066 34.6833V34.3681H16.5756V34.6833ZM5.8824 40.1424C5.53196 40.3586 5.155 40.4539 4.70133 40.4539C3.97961 40.4539 3.37154 40.1726 2.93207 39.6513C2.45755 39.1638 2.23403 38.4574 2.23403 37.5961C2.23403 36.7 2.45755 35.999 2.89702 35.4456C3.34407 34.9261 3.91804 34.6494 4.61513 34.6494C5.11617 34.6494 5.53196 34.7996 5.8824 35.0773C6.23095 35.3503 6.48668 35.7525 6.678 36.2748H7.02749L6.96024 34.2471H6.6439C6.58328 34.3681 6.51414 34.4322 6.42227 34.4927C6.3607 34.5577 6.29346 34.5916 6.19496 34.5916C6.16749 34.5916 5.97995 34.5257 5.56795 34.4029C5.18341 34.2471 4.8074 34.1848 4.42571 34.1848C3.94835 34.1848 3.47004 34.3067 3.02773 34.5257C2.58447 34.7428 2.20657 35.047 1.84665 35.4456C1.59566 35.7864 1.40718 36.1172 1.27837 36.5222C1.15619 36.8878 1.088 37.2919 1.088 37.717C1.088 38.2375 1.18839 38.7048 1.37593 39.1262C1.56441 39.5285 1.84665 39.9023 2.25771 40.2377C2.54848 40.4786 2.89702 40.6967 3.27777 40.8204C3.66231 40.9441 4.07432 41 4.48159 41C5.11617 41 5.66267 40.8818 6.13718 40.6399C6.61454 40.3586 6.99055 39.9555 7.27753 39.4378L6.89774 39.1904C6.58329 39.6229 6.26125 39.9298 5.8824 40.1424ZM25.4029 34.6833C25.6889 34.6833 25.9087 34.7428 26.0659 34.8647C26.1947 34.982 26.262 35.2028 26.262 35.4795V39.1262L22.2934 34.3681H20.4816V34.6833C20.6748 34.7089 20.8282 34.7428 20.9921 34.7996C21.1209 34.8647 21.2469 34.9563 21.3084 35.047V39.775C21.3084 40.0205 21.2469 40.2377 21.1209 40.3586C20.9921 40.4786 20.8008 40.5144 20.5081 40.5144H20.4816V40.8525H22.8087V40.5144H22.7424C22.4497 40.5144 22.2319 40.4786 22.1021 40.3586C21.9752 40.2377 21.908 40.0205 21.908 39.775V35.5106L26.5139 40.9688H26.871V35.4795C26.871 35.2028 26.9297 35.0195 27.0907 34.8949C27.2119 34.7657 27.407 34.7089 27.6864 34.6833V34.3681H25.4029V34.6833ZM79.3509 37.9617C79.7023 38.2723 79.8614 38.6406 79.8614 39.0639C79.8614 39.5917 79.6085 40.0205 79.1624 40.3586C78.6888 40.6967 78.1149 40.8525 77.3931 40.8525H77.1298H73.9939V40.5144C74.2752 40.5144 74.4987 40.4539 74.6247 40.3586C74.7497 40.2377 74.816 40.0507 74.816 39.8006V35.4154C74.816 35.1423 74.7497 34.982 74.6247 34.8647C74.4987 34.7657 74.2752 34.7089 73.9939 34.6833V34.3681H77.1298H77.1961C77.9548 34.3681 78.5297 34.4927 78.9427 34.7657C79.3225 35.0195 79.5469 35.4154 79.5469 35.9074C79.5469 36.2748 79.42 36.6138 79.1302 36.8557C78.8792 37.1022 78.4994 37.2919 77.9548 37.4064C78.5932 37.4999 79.0374 37.6868 79.3509 37.9617ZM75.8275 37.2277H76.7538C76.9148 37.2277 77.0361 37.2277 77.1298 37.1975C77.5106 37.1673 77.8014 37.072 78.022 36.8878C78.31 36.7 78.4359 36.393 78.4359 35.999C78.4359 35.6004 78.31 35.3201 78.0524 35.1423C77.8326 34.9563 77.5456 34.8647 77.1298 34.8299H76.8788H75.8275V37.2277ZM78.7229 39.0639C78.7229 38.6406 78.5932 38.3364 78.2711 38.0854C78.022 37.838 77.6413 37.717 77.1298 37.717H77.0673H75.8275V39.6513C75.8275 39.9555 75.8957 40.1726 76.0245 40.2377C76.1107 40.3275 76.3693 40.3586 76.7822 40.3586H77.1298C77.6044 40.3275 77.9548 40.2065 78.2077 40.0507C78.5619 39.8006 78.7229 39.501 78.7229 39.0639ZM67.38 39.9023C67.2938 39.9894 67.1669 40.0801 67.04 40.1424C66.6858 40.3586 66.2785 40.4539 65.8674 40.4539C65.0993 40.4539 64.4941 40.1726 64.0556 39.6513C63.6123 39.1638 63.3935 38.4574 63.3935 37.5961C63.3935 36.7 63.6123 35.999 64.0233 35.4456C64.4657 34.9261 65.0358 34.6494 65.7699 34.6494C66.2785 34.6494 66.6858 34.7996 67.04 35.0773C67.1669 35.168 67.2938 35.2935 67.38 35.4456C67.577 35.6582 67.6982 35.9395 67.7968 36.2748H68.1851L68.0866 34.2471H67.7645C67.7428 34.3681 67.6755 34.4322 67.577 34.4927C67.5145 34.5257 67.4473 34.5577 67.38 34.5916H67.3582C67.3279 34.5916 67.0978 34.5257 66.7217 34.4029C66.3344 34.2471 65.9584 34.1848 65.5804 34.1848C65.0709 34.1848 64.5964 34.3067 64.1493 34.5257C63.6994 34.7428 63.3215 35.047 63.009 35.4456C62.7883 35.7223 62.6273 35.999 62.4985 36.3032C62.4596 36.3674 62.435 36.4278 62.435 36.5222C62.2787 36.8878 62.2077 37.2919 62.2077 37.717C62.2077 38.2109 62.309 38.669 62.4985 39.1024L62.5297 39.1262C62.7229 39.5285 63.009 39.9023 63.3935 40.2377C63.6994 40.4786 64.0556 40.6967 64.3965 40.8204C64.7849 40.9441 65.1997 41 65.6363 41C66.2785 41 66.8212 40.8818 67.2938 40.6399C67.3279 40.6051 67.3582 40.5749 67.38 40.5437C67.7968 40.2981 68.15 39.9298 68.4342 39.4378L68.0553 39.1904C67.829 39.4671 67.6395 39.7172 67.38 39.9023ZM58.1843 34.6833C58.5338 34.7089 58.7525 34.7428 58.8757 34.8647C59.0111 34.9563 59.0679 35.1423 59.0679 35.4154V39.8006C59.0679 40.0507 59.0111 40.2377 58.8757 40.3586C58.7525 40.4539 58.5338 40.5144 58.1843 40.5144V40.8525H61.0096V40.5144C60.6894 40.5144 60.4631 40.4539 60.3068 40.3586C60.1837 40.2377 60.1145 40.0507 60.1145 39.8006V35.4154C60.1145 35.1423 60.1837 34.9563 60.3361 34.8647C60.4631 34.7428 60.6894 34.7089 61.0096 34.6833V34.3681H58.1843V34.6833ZM51.3251 34.3681L51.2266 35.9688H51.5799C51.6708 35.5409 51.7958 35.2321 52.0241 35.0773C52.2467 34.9261 52.5611 34.8299 53.0366 34.8299H53.7431V39.8006C53.7431 40.0507 53.673 40.2377 53.5452 40.3586C53.4202 40.4786 53.1673 40.5144 52.8462 40.5437V40.8525H55.6753V40.5144C55.3523 40.5144 55.1335 40.4539 54.9782 40.3586C54.8465 40.2377 54.7888 40.0507 54.7888 39.8006V34.8299H55.483C55.9613 34.8299 56.3108 34.9261 56.4946 35.0773C56.7209 35.2321 56.8782 35.5409 56.9767 35.9688H57.3252L57.1964 34.3681H51.3251ZM87.2926 40.3275C87.4792 40.4539 87.6667 40.5144 87.9272 40.5144V40.8525H84.9702V40.5144C85.2525 40.5144 85.4789 40.4786 85.5745 40.3925C85.7033 40.3275 85.7706 40.2065 85.7706 40.0801C85.7706 39.9894 85.7706 39.9298 85.7317 39.8391C85.7317 39.7475 85.7033 39.6513 85.6323 39.5917L85.2525 38.7341H83.8649H82.4651L82.0834 39.5624C82.0512 39.6513 82.0209 39.7475 82.0209 39.8006C81.9839 39.9023 81.9839 39.9555 81.9839 40.0205C81.9839 40.1726 82.0209 40.2633 82.1468 40.3586C82.2444 40.4191 82.4651 40.4786 82.7473 40.5144V40.8525H80.4325V40.5144C80.656 40.5144 80.8133 40.4191 80.9733 40.3275C81.104 40.2065 81.2215 40.0205 81.3493 39.7475C81.3493 39.7475 83.3847 35.5665 83.8649 34.5916C83.9255 34.4322 83.9568 34.3681 83.9568 34.3681H84.3698L86.8437 39.7172C87.0056 39.9894 87.1269 40.2065 87.2926 40.3275ZM85.0062 38.177L83.9028 35.6582C83.9028 35.6582 83.9028 35.7223 83.8649 35.7864C83.6405 36.2455 82.682 38.177 82.682 38.177H83.8649H85.0062ZM45.1052 40.1424C44.7482 40.3586 44.3437 40.4539 43.9298 40.4539C43.1987 40.4539 42.5953 40.1726 42.1237 39.6513C41.6766 39.1638 41.454 38.4574 41.454 37.5961C41.454 36.7 41.6766 35.999 42.1237 35.4456C42.5631 34.9261 43.1418 34.6494 43.8219 34.6494C44.3437 34.6494 44.7482 34.7996 45.1052 35.0773C45.449 35.3503 45.7086 35.7525 45.8933 36.2748H46.2418L46.1509 34.2471H45.8677C45.8023 34.3681 45.7408 34.4322 45.6432 34.4927C45.5826 34.5577 45.5172 34.5916 45.4178 34.5916C45.3875 34.5916 45.2037 34.5257 44.7842 34.4029C44.411 34.2471 44.0274 34.1848 43.6504 34.1848C43.1418 34.1848 42.6919 34.3067 42.243 34.5257C41.8016 34.7428 41.4228 35.047 41.0742 35.4456C40.8185 35.7864 40.6224 36.1172 40.505 36.5222C40.3752 36.8878 40.3089 37.2919 40.3089 37.717C40.3089 38.2375 40.4122 38.7048 40.594 39.1262C40.7872 39.5285 41.0742 39.9023 41.454 40.2377C41.7713 40.4786 42.1237 40.6967 42.5053 40.8204C42.8851 40.9441 43.2593 41 43.7082 41C44.3437 41 44.8779 40.8818 45.3572 40.6399C45.8023 40.3586 46.2115 39.9555 46.4975 39.4378L46.1244 39.1904C45.8023 39.6229 45.4898 39.9298 45.1052 40.1424ZM47.5451 34.6833C47.8699 34.7089 48.0897 34.7428 48.2118 34.8647C48.3435 34.9563 48.443 35.1423 48.443 35.4154V39.8006C48.443 40.0507 48.3435 40.2377 48.2118 40.3586C48.0897 40.4539 47.8699 40.5144 47.5451 40.5144L47.5166 40.8525H50.342V40.5144C50.0228 40.5144 49.804 40.4539 49.6695 40.3586C49.5473 40.2377 49.4583 40.0507 49.4583 39.8006V35.4154C49.4583 35.1423 49.5473 34.9563 49.6695 34.8647C49.804 34.7428 50.0228 34.7089 50.342 34.6833V34.3681H47.5166L47.5451 34.6833ZM35.0836 40.3275C35.2787 40.4539 35.4672 40.5144 35.722 40.5144V40.8525H32.764V40.5144C33.0548 40.5144 33.248 40.4786 33.3645 40.3925C33.4981 40.3275 33.5577 40.2065 33.5577 40.0801C33.5577 39.9894 33.5577 39.9298 33.5265 39.8391C33.5265 39.7475 33.4981 39.6513 33.4346 39.5917L33.0548 38.7341H31.6597H30.2636L29.8819 39.5624C29.8507 39.6513 29.8213 39.7475 29.8213 39.8006C29.7834 39.9023 29.7834 39.9555 29.7834 40.0205C29.7834 40.1726 29.8213 40.2633 29.9501 40.3586C30.0391 40.4191 30.2276 40.4786 30.5458 40.5144V40.8525H29.5646H28.2282V40.5144C28.4517 40.5144 28.6127 40.4191 28.77 40.3275C28.9016 40.2065 29.0229 40.0205 29.1517 39.7475C29.1517 39.7475 29.3411 39.4057 29.5646 38.8825C30.2001 37.5961 31.3102 35.2935 31.6597 34.5916C31.7175 34.4322 31.7525 34.3681 31.7525 34.3681H32.1654L34.6384 39.7172C34.7966 39.9894 34.9264 40.2065 35.0836 40.3275ZM32.8 38.177L31.6881 35.6582C31.6881 35.6582 31.6881 35.7223 31.6597 35.7864C31.4314 36.2455 30.4777 38.177 30.4777 38.177H31.6597H32.8ZM102.399 39.5917L100.56 36.8878L102.399 35.2935C102.59 35.1084 102.813 34.982 102.998 34.8949C103.229 34.7996 103.419 34.7089 103.634 34.6833V34.3681H100.814V34.6833C101.127 34.7089 101.32 34.7657 101.445 34.7996C101.539 34.8647 101.607 34.9563 101.607 35.0773C101.607 35.168 101.579 35.2321 101.508 35.3201C101.445 35.4154 101.32 35.5106 101.195 35.6582L98.6848 37.8086V35.4154C98.6848 35.1423 98.7473 34.982 98.8723 34.8647C99.0049 34.7657 99.2256 34.7089 99.5088 34.6833L99.5467 34.3681H96.8123V34.6833C97.122 34.7089 97.355 34.7428 97.48 34.8647C97.6098 34.9563 97.6685 35.1423 97.6685 35.4154V39.8006C97.6685 40.0507 97.6098 40.2377 97.48 40.3586C97.355 40.4539 97.122 40.5144 96.8123 40.5144V40.8525H99.5467L99.5088 40.5144C99.2256 40.5144 99.0049 40.4539 98.8723 40.3586C98.7473 40.2377 98.6848 40.0507 98.6848 39.8006V38.5142L99.7655 37.5961L101.195 39.6852C101.287 39.8391 101.384 39.9555 101.413 40.0507C101.445 40.1158 101.476 40.2065 101.476 40.2633C101.476 40.3586 101.413 40.4191 101.287 40.4539C101.161 40.5144 100.969 40.5144 100.75 40.5144V40.8525H103.734V40.5144C103.476 40.5144 103.261 40.4539 103.069 40.3275C102.877 40.2065 102.658 39.9555 102.399 39.5917ZM93.4499 34.6833C93.7663 34.6833 93.9898 34.7428 94.147 34.8647C94.2721 34.982 94.3308 35.2028 94.3308 35.4795V39.1262C94.3308 39.1262 93.9557 38.669 93.3827 37.991C92.2092 36.5827 90.3405 34.3681 90.3405 34.3681H88.558V34.6833C88.7512 34.7089 88.9065 34.7428 89.0363 34.7996C89.1945 34.8647 89.2892 34.9563 89.3858 35.047V39.775C89.3858 40.0205 89.3233 40.2377 89.1945 40.3586C89.0647 40.4786 88.8753 40.5144 88.5892 40.5144H88.558V40.8525H90.8756V40.5144H90.8084C90.5271 40.5144 90.3036 40.4786 90.1747 40.3586C90.0488 40.2377 89.9872 40.0205 89.9872 39.775V35.5106C89.9872 35.5106 92.0482 37.9333 93.3827 39.5624C94.0845 40.3586 94.5628 40.9688 94.5628 40.9688H94.9351V35.4795C94.9351 35.2028 95.0023 35.0195 95.1302 34.8949C95.2902 34.7657 95.4806 34.7089 95.7619 34.6833V34.3681H93.4499V34.6833ZM48.012 5.6825C48.3861 5.91798 48.7697 6.12231 49.212 6.35138H49.5587C49.9622 6.24875 50.6574 5.88958 50.6574 4.55916V4.52251C50.5806 3.79499 50.2075 3.12612 49.5587 2.60202C49.212 2.33538 48.7025 2.1338 48.012 1.99911C47.8396 1.99911 47.6332 1.96979 47.4267 1.93406H47.4002C46.3602 1.93406 45.7124 2.03118 45.0617 2.23551C44.4385 2.40044 44.751 2.72846 44.751 2.72846C45.8468 4.02589 46.7713 4.92383 48.012 5.6825ZM76.8836 6.18828C76.7131 5.81811 76.1675 4.92383 76.6449 4.62605C77.019 4.42814 77.9861 4.39057 79.1472 4.82305C80.3198 4.39057 81.1429 4.05796 81.7197 3.82432C82.7956 3.39458 83.0684 3.22966 83.1356 3.19667L83.2711 3.06015C83.5846 2.85949 83.6869 2.63042 83.9199 2.56078H84.1945C85.9089 2.79351 86.9498 3.39458 87.8296 4.22106L87.9793 4.45654C87.9793 4.78364 87.698 5.14923 87.4271 5.65318C87.1515 6.15072 86.7698 6.54929 86.64 7.0175C86.5974 7.15311 86.5321 7.57826 86.3597 8.21048C86.0879 9.77821 85.7781 11.0335 85.4987 11.9956V12.0313C85.2601 12.7249 84.8111 13.359 84.6084 13.6274C84.3735 13.8895 83.9549 14.2551 83.6149 14.1232C83.5079 14.0535 83.2 13.8895 83.0684 13.7869C82.825 13.8281 82.4092 13.9216 81.7197 14.0865C81.6931 14.1232 81.659 14.1232 81.624 14.1232C81.624 14.1232 81.2092 14.2184 80.8331 14.3165C81.0699 14.5538 81.3834 14.7884 81.659 15.022C81.6931 15.0504 81.7197 15.0504 81.7197 15.088C82.4092 15.6497 83.3345 16.4166 83.8545 16.7785C85.4637 14.6867 85.7781 13.4873 85.7781 13.359L85.8407 12.6251C85.8407 12.4959 85.745 12.4959 86.049 12.2622C86.3938 12.0634 87.2509 12.1623 88.1498 12.6956V12.7249C88.6281 13.0575 89.3148 13.7264 89.2778 14.1891C89.2485 14.5914 88.8308 14.5217 88.487 14.8873C88.0844 15.2163 87.7321 15.5186 87.4584 15.7816C86.9147 16.3139 86.1504 16.9471 85.1578 17.7415C87.3267 19.2029 89.6197 20.2017 92.2632 20.866C92.6411 20.9603 92.9887 21.0346 93.3628 21.0969C94.3232 21.2966 95.0146 21.3653 95.1188 21.6338C95.2846 21.9233 94.4283 22.4245 93.5655 22.7929C93.1289 22.9578 92.6761 23.1264 92.2632 23.2867C89.3148 24.3542 87.9414 24.1196 86.5974 22.7241C85.0905 21.2645 83.6869 19.8691 82.4471 18.5377C82.2368 18.3004 81.9991 18.0759 81.7197 17.8093C81.2092 17.243 80.6229 16.6484 80.0091 16.0198C79.975 17.7103 79.9447 21.4322 79.9447 22.5885H79.975C80.6589 22.3256 81.2433 22.0947 81.7197 21.8913C83.7892 21.128 84.2712 21.128 84.3357 21.3653C84.4408 21.6659 83.6518 22.3925 81.8627 24.3212C81.8201 24.3872 81.7907 24.4192 81.7197 24.4889C80.6968 25.5811 79.7042 26.4753 79.3244 26.9381C78.776 27.5098 78.1906 28.1384 77.6432 28.0046C77.1583 27.8708 76.679 26.9381 76.4384 26.217C76.3693 26.0447 76.3361 25.8468 76.3011 25.7103C76.2348 25.1816 76.2007 25.0478 76.4384 24.7225C76.5445 24.6162 76.679 24.4486 76.8836 24.2506C77.5409 23.4865 77.5409 23.2217 77.7047 21.4322C77.7047 21.3653 77.5409 9.40987 77.5409 9.37231C77.4045 7.44723 77.092 6.7133 76.8836 6.18828ZM83.4794 9.40987C83.3345 9.50333 83.3345 9.50333 83.1356 9.63894C83.0333 9.67559 82.4471 9.8451 81.7197 10.0073C81.1429 10.1346 80.4893 10.3032 80.0091 10.4672V12.5288C80.7602 12.2622 81.3493 12.0955 81.7197 12.0313H81.7907C82.2018 11.9333 82.6138 11.9333 82.9907 11.9653C83.2 11.0335 83.3345 10.1695 83.4794 9.40987ZM79.9447 8.40748L80.0091 8.37999H79.975C80.4202 8.21048 81.2092 7.94476 81.7197 7.74227C82.037 7.64881 82.2368 7.57825 82.2368 7.57825C82.8941 7.61216 83.236 7.88246 83.6149 8.21048L83.6518 8.24347C83.6869 7.91086 83.7172 7.61216 83.7551 7.3162C83.8545 6.58044 83.8545 6.12231 83.8545 5.81811V5.51849C83.6149 5.51849 82.9907 5.58446 81.7197 5.98762C81.2433 6.12231 80.6589 6.31656 79.9447 6.58044V8.40748ZM113.755 7.77617C114.174 8.04647 115.165 8.64204 117.089 8.21048C118.424 7.94476 123.435 6.88189 123.918 6.45125C123.918 6.45125 124.165 6.31656 124.222 6.12231C124.296 5.72007 123.435 5.05028 123.164 4.85878C122.132 4.12485 120.793 4.32551 120.448 4.42814C120.111 4.48861 119.694 4.6572 118.876 4.95591L118.837 4.98889C118.115 5.32241 116.779 5.6825 114.753 6.18828C113.887 6.38436 113.074 6.45125 113.074 6.78386C113.043 7.1806 113.341 7.48114 113.755 7.77617ZM103.458 10.4966C104.349 10.1017 106.032 8.94441 108.4 6.78386C108.845 6.38436 109.36 5.98762 109.84 5.55239C110.052 5.38838 110.223 5.25277 110.423 5.09243C111.179 4.45654 111.39 4.156 111.418 4.02589C111.452 3.8573 111.358 3.59066 111.358 3.59066C110.909 2.89339 110.354 2.36837 109.84 2.03118C109.322 1.66651 108.845 1.46584 108.513 1.40262C108.166 1.33756 107.924 1.40262 107.749 1.53365C107.58 1.66651 107.438 2.29873 107.505 2.79352C107.546 3.16369 107.438 3.4349 106.689 4.55916C105.243 6.47874 103.215 8.47803 102.493 9.10109C101.84 9.704 100.814 10.6368 100.95 10.8686C101.121 11.1325 102.221 11.0711 103.458 10.4966ZM18.8658 15.9493C18.2852 15.9493 17.2196 15.9823 15.8122 16.0436C14.8802 16.0821 13.7853 16.1142 12.6488 16.182V18.6358L12.5891 21.6338C12.4868 23.6899 12.3097 25.0478 12.2064 26.3104C11.8304 29.0354 11.4535 29.7986 11.0405 30.0946C10.6636 30.3979 10.4163 29.7657 10.2809 29.0354C10.2061 28.5058 9.62833 25.1816 9.75903 16.4459C9.31483 16.5091 8.22562 16.5778 7.19324 16.6795C6.2641 16.7446 5.36905 16.8115 5.06029 16.8454C4.75057 17.8432 4.3774 18.2024 4.10652 18.3416C3.66136 18.5716 3.45015 18.371 3.17264 18.141C3.0031 18.0054 2.45282 17.2751 2.07491 15.1814C1.52747 11.3661 0.330283 9.10109 0.330283 9.10109C0.12286 8.60814 -0.0495179 8.34609 0.0129931 8.04647C0.157905 7.48113 1.62881 7.34827 3.8309 8.14451C3.97013 8.11244 5.61152 7.97683 7.19324 7.84123C8.42736 7.71478 9.56108 7.61216 9.93425 7.57825C9.90016 6.88189 9.90016 6.04901 9.86985 5.02279C9.62833 2.42884 9.35366 1.99911 9.25042 1.63444C9.043 0.967396 8.80716 0.677852 8.80716 0.435041C8.80716 0.238046 8.76359 -0.0579074 10.011 0.00989537C11.0708 0.0373842 12.4868 0.339754 13.6792 1.73615C13.7465 1.80303 13.8535 1.99911 13.8194 2.1338C13.8194 2.23551 13.7465 2.42884 13.6489 2.60202C13.5438 2.72846 13.4756 2.85949 13.4756 2.9337C13.3657 3.16369 13.0967 3.69695 12.9234 7.15311C14.0571 6.98452 15.0242 6.84799 15.8122 6.74903C18.2852 6.38436 19.2105 6.21577 19.346 6.15071C19.346 6.15071 19.9313 5.85476 20.1056 5.85476L20.3414 5.91798C22.2309 6.68032 23.5664 7.48114 24.3582 8.40748C24.3582 8.40748 24.6348 8.74009 24.5637 8.90318C24.5287 9.10109 24.4264 9.23762 23.9187 9.704L23.5664 10.0073C23.2605 10.4022 22.463 11.0335 20.8547 13.5908C21.2327 14.1525 21.4031 14.4887 21.5424 14.7554C21.7829 15.2163 21.9591 15.7165 21.6125 15.9823C21.3397 16.2168 20.169 15.9493 18.8658 15.9493ZM9.90016 9.5409C9.46069 9.60596 8.33075 9.73698 7.19324 9.86892C6.02447 10.0073 4.88696 10.1346 4.48348 10.2024C4.54694 10.9355 4.81877 13.9875 4.88696 14.7884C5.26771 14.7554 6.23095 14.6867 7.19324 14.5914C8.33075 14.4887 9.48816 14.387 9.86985 14.3531C9.86985 13.6274 9.90016 10.4352 9.90016 9.5409ZM18.7237 10.8686C18.9008 10.1017 18.934 9.60595 18.934 9.34024C18.934 9.13683 18.9008 9.00672 18.9008 8.97648C18.6972 8.90318 17.8031 8.84271 15.8122 8.94441C15.0242 8.97648 14.0202 9.0397 12.7842 9.17439C12.7842 9.86892 12.7207 13.1263 12.7207 14.0535C14.0202 13.8895 15.0573 13.7585 15.8122 13.6274C17.1439 13.4259 17.7008 13.2912 17.8031 13.2252C18.0351 12.9961 18.3875 12.3639 18.7237 10.8686ZM52.2637 15.9493C51.8195 15.613 51.3052 15.318 50.1071 15.482C50.001 15.482 49.767 15.482 48.012 15.8457C47.5981 15.9493 47.0469 16.0436 46.4274 16.2168C44.5502 16.6145 44.1685 16.6795 44.0994 16.7079C43.138 16.8115 42.4845 16.7446 42.4457 17.2091C42.4457 17.243 42.4845 17.4107 42.5527 17.5133C42.6531 17.7415 42.8672 17.9064 43.1039 18.0759L43.175 18.141C43.8228 18.5066 44.2367 18.6055 45.1602 18.5716H45.1981C46.2285 18.4699 47.1548 18.371 48.012 18.2748C49.4876 18.1089 50.6962 17.9064 51.614 17.7103L52.062 17.6105C52.6122 17.5133 53.0243 17.5472 53.0243 17.1102C53.0243 16.6795 52.6122 16.2791 52.2987 15.9823L52.2637 15.9493ZM75.9971 20.866C76.2007 20.6644 76.3361 20.5297 76.4384 20.4344C76.5777 20.2658 76.6449 20.1678 76.607 20.0367C76.607 19.9662 76.5445 19.935 76.4384 19.935C76.0596 19.935 74.9656 20.3281 72.0778 21.5971C72.1119 20.5663 72.1498 18.6055 72.1791 18.1089C72.3885 18.0439 72.6281 17.9421 72.6281 17.9421C74.0659 17.5133 75.479 17.0772 75.7536 17.0131C75.962 16.9471 76.2641 16.9471 76.4384 16.7785C76.5057 16.7079 76.5445 16.6484 76.5445 16.5494C76.5777 16.4798 76.5057 16.3488 76.4384 16.182C76.3011 15.9493 76.0596 15.613 75.7205 15.3509C75.1986 14.8873 74.5167 14.8168 74.1407 14.9844C74.1407 14.9844 73.7997 15.088 73.6595 15.153C73.4843 15.2483 73.5582 15.2163 72.8649 15.482C72.8649 15.482 72.4548 15.613 72.1791 15.7165C72.1791 15.6496 72.1498 15.5525 72.2502 15.318C72.3572 15.0504 72.4263 14.7187 72.4936 14.5538C72.6669 13.9555 72.1498 13.7264 72.0778 13.6614C73.0742 13.4607 74.7592 12.7936 74.7592 12.7936C75.0689 12.6251 75.7205 12.4959 75.8266 12.1266C75.9213 11.8297 75.6883 11.5631 75.2753 11.1691C74.8984 10.8365 74.3424 10.4022 73.3167 10.733C72.6669 10.9355 71.7046 11.203 71.7046 11.203C70.2527 11.6648 69.4694 11.9333 68.7477 12.1623C69.262 11.433 69.8473 10.5332 70.3607 9.5409C71.1184 9.73698 72.0181 9.63894 75.3691 8.67961C75.7205 8.57607 76.1675 8.50918 76.4384 8.30944C76.5057 8.24346 76.5777 8.17749 76.607 8.11244C76.679 8.00982 76.607 7.74227 76.4384 7.44723C76.3693 7.31621 76.2348 7.1806 76.0993 7.05507C75.6883 6.68032 75.1655 6.35138 74.6483 6.41735C73.723 6.5163 72.9738 6.74903 71.7378 7.1806C71.6658 7.2145 71.5995 7.25115 71.5645 7.25115C71.6658 7.05507 71.7709 6.81226 71.8704 6.54929C72.7645 4.72317 73.0742 4.26412 73.2485 4.09186C73.5203 3.73086 73.7599 3.59066 73.7599 3.29379C73.7599 3.02808 73.346 2.46183 72.6982 2.03118C71.841 1.46584 70.8134 1.16897 70.3985 1.09934C70.1551 1.09934 69.9089 1.09934 69.8123 1.16897C69.5366 1.36688 69.6418 2.23551 69.5745 2.9337C69.5035 3.99016 69.4012 4.45654 69.1208 5.25277C67.8574 9.07177 65.8636 12.5939 63.1842 15.613C62.6699 16.2168 61.8165 16.9801 62.5013 16.9801C62.8442 16.9471 63.7061 16.6145 64.2488 16.3488C65.1419 15.8457 66.1014 15.153 67.5136 13.6888C67.6793 13.8529 67.8867 14.0224 68.3035 14.1232C68.544 14.1525 68.9854 14.0865 69.333 14.0224C69.4343 14.2844 69.4694 14.6867 69.5366 15.022C69.6096 15.3509 69.6096 15.8457 69.6418 16.4798C68.4721 16.7785 67.1328 17.1102 65.5871 17.4107C65.0709 17.5472 64.4259 17.5472 64.3549 17.9064C64.2914 18.1089 64.4884 18.5066 65.0396 19.0069C65.3844 19.3367 65.9659 19.7335 66.52 19.6711C66.8941 19.6382 67.9246 19.3367 68.2675 19.2359C68.5781 19.1351 69.262 18.9702 69.6096 18.8392C69.6096 19.4659 69.5745 20.0688 69.5366 20.6039C69.5366 20.6039 69.5035 21.0346 69.5035 21.128C69.262 22.2578 68.956 22.8561 68.4721 23.1603C68.0572 23.4187 67.8242 23.5909 67.7125 23.754C67.7125 23.754 67.6139 23.8521 67.6537 24.1572C67.6793 24.4889 67.9928 25.8101 68.3698 26.446C68.5781 26.7447 68.7477 26.8767 68.7477 26.8767C69.262 27.0727 69.7801 26.6485 70.3985 26.0108C70.8134 25.5811 71.2169 25.2201 71.5645 24.9168C72.1498 24.4192 73.1746 23.4865 74.2117 22.5885C75.2327 21.6338 75.7536 21.128 75.9971 20.866ZM50.8951 27.1103C50.2075 27.1415 49.2452 27.2084 48.012 27.3403C47.2922 27.4099 46.4653 27.4759 45.5381 27.5382C45.2625 28.1045 45.1981 28.3986 45.0238 28.5672C44.8448 28.7321 44.6468 28.8705 44.4044 28.8338L44.1344 28.6991C43.6883 28.3042 43.3748 27.7719 43.138 26.709C42.1776 22.8937 41.9323 22.3595 41.8689 22.0589L41.6226 21.5642C41.5885 21.5257 41.5885 21.4982 41.5582 21.4606C41.4559 21.2645 41.347 21.063 41.5582 20.7963C41.5582 20.7643 41.5885 20.7303 41.6226 20.701H41.6614C41.8348 20.5022 42.3775 20.4729 43.5794 20.6314C44.0293 20.701 44.2017 20.7303 44.304 20.7303C45.6101 20.6644 46.9503 20.4344 48.012 20.2017C49.3153 19.9011 50.2075 19.6024 50.2075 19.6024C50.9917 19.3065 51.2768 19.2029 51.4804 19.2029L51.614 19.2359C54.1229 20.1348 55.4669 21.4322 55.394 21.8913C55.3239 22.3595 54.7045 22.7617 54.2925 23.2217C53.8824 23.6899 53.9524 23.6899 53.0243 24.9846C53.3662 25.549 53.6768 26.1785 53.6105 26.414C53.5082 26.8373 53.1976 26.9381 50.8951 27.1103ZM50.8316 22.0314C50.5172 21.9655 49.7926 21.9655 48.012 22.2202C47.4987 22.2926 46.8489 22.3925 46.1234 22.5271C46.1234 22.5271 45.6479 22.6252 45.1981 22.6866C45.2994 23.3188 45.5078 24.9846 45.6101 25.6141C46.4994 25.5142 47.3272 25.3832 48.012 25.3181C48.9052 25.1816 49.6553 25.0835 50.1772 24.9846C50.5437 24.214 50.5806 23.1887 50.8316 22.0314ZM129.173 12.9961C129.619 12.3273 129.068 11.5017 128.042 10.8035C127.278 10.3032 126.039 9.97155 124.571 10.3032C124.369 10.3362 122.824 10.6688 122.132 10.8686C121.309 11.1691 116.465 12.2622 110.533 13.2252C110.289 13.2536 110.052 13.2912 109.84 13.3232C109.462 13.3938 109.157 13.4607 109.057 13.6888C108.883 14.0224 109.229 14.387 109.496 14.6207C109.603 14.6546 109.706 14.7554 109.84 14.8168C110.257 15.022 110.868 15.2859 111.635 15.383H111.731C112.144 15.383 112.618 15.2859 113.237 15.1164L113.307 15.088C113.62 14.9533 114.65 14.6867 117.574 14.2184C117.907 15.4206 118.115 17.4464 118.218 20.3006V21.0969C118.218 23.754 118.015 24.6529 117.907 24.9488C117.738 24.9488 117.4 24.882 116.779 24.7482C115.234 24.3872 113.654 23.5579 113.827 24.214C113.887 24.5493 114.863 25.3832 115.613 26.3104C116.194 27.0416 116.577 27.4759 117.016 28.2721C117.468 29.0638 117.67 29.7657 118.391 29.5348C119.079 29.3057 119.974 28.6652 120.627 27.8378C121 27.311 121.309 26.6815 121.377 26.0108C121.446 25.0166 121 23.4865 120.928 22.2202C120.793 20.701 120.793 19.4998 120.793 18.9418V17.4107C120.793 16.8802 120.895 16.5091 121.033 15.9493C121.137 15.7165 121.247 15.482 121.247 15.2483C121.247 15.088 121.2 14.9203 121.137 14.7884C121.033 14.42 120.758 14.0865 120.343 13.7869C121.827 13.6274 123.328 13.5221 124.77 13.5221C125.806 13.4873 126.773 13.4607 127.218 13.4607C127.63 13.4607 128.901 13.4607 129.173 12.9961ZM108.713 13.1922C109.119 12.7249 109.496 12.3639 109.84 12.0955C109.947 11.9956 110.052 11.9333 110.121 11.9012C110.391 11.6648 110.6 11.3661 110.634 11.2671C110.766 11.0335 110.634 10.8365 110.634 10.8365C110.423 10.3701 110.155 9.93856 109.84 9.60595C109.36 9.00672 108.809 8.64204 108.644 8.57607C108.437 8.47803 108.128 8.34609 107.78 8.54309C107.438 8.74008 107.233 9.20372 107.168 9.57297C107.168 9.57297 106.995 10.8365 105.106 13.2252C103.35 15.2163 101.64 16.9801 99.5457 18.5377C99.4074 18.6358 99.2701 18.7366 99.1356 18.8392C97.8627 19.7335 97.3796 20.1678 97.7651 20.4344C97.9602 20.5297 98.6564 20.4729 99.5457 20.2017C99.9615 20.0963 100.437 19.935 100.883 19.7005C102.05 19.2029 103.661 18.2024 105.518 16.3799C105.552 16.9801 105.581 17.5756 105.581 18.141C105.581 20.0688 105.756 21.9948 105.172 23.6899C105.035 24.0875 104.93 24.3872 104.904 24.4486C104.904 24.6162 104.796 24.7812 104.796 24.9846C104.796 25.352 104.93 25.8816 105.14 26.2463C105.411 26.7447 105.896 27.4099 106.166 27.7352C106.481 28.0394 106.824 28.3702 107.198 28.2721C107.546 28.1704 108.025 26.5734 108.059 25.0166C108.093 23.4187 108.025 20.7303 108.059 19.1709C108.059 18.9088 108.093 18.5066 108.166 18.0759C108.19 17.6453 108.295 17.2091 108.295 16.9471C108.295 16.0821 107.924 15.5525 107.198 14.7187C107.58 14.387 108.059 13.8529 108.713 13.1922ZM38.2631 7.81374C38.6022 7.3162 38.946 6.848 39.2955 6.35138C39.4338 6.18828 39.5692 5.98762 39.7103 5.81811C40.1896 5.18314 40.2237 5.14924 40.2824 4.92383C40.2824 4.92383 40.2824 4.78365 40.2474 4.6572C40.0778 4.05796 39.7691 3.52836 39.2955 3.12612C38.6732 2.60201 37.8492 2.19885 36.8131 1.96979C36.8131 1.96979 36.24 1.80303 36.24 2.29873C36.24 2.42884 36.2997 2.6634 36.3461 3.19667C36.3461 3.19667 36.3802 3.52836 36.2997 3.89487C36.24 4.32551 35.3156 7.05507 34.1109 9.07177C33.0416 10.8686 31.2505 13.4873 29.5438 15.383C28.609 16.3799 28.4479 16.5494 28.1003 16.8454C27.8579 17.1102 27.4516 17.3768 27.6164 17.5756C27.7234 17.7415 28.9556 17.5472 30.6425 16.4798C31.9135 15.6496 33.3238 14.42 35.1016 12.2622C35.2086 13.0933 35.274 14.0224 35.3156 15.088C35.3403 15.6497 35.3403 16.182 35.3403 16.7079V17.2091C35.3403 17.878 35.3156 18.4699 35.2446 19.0069C35.1366 20.701 34.8648 22.5885 34.3827 24.3212L34.2766 24.7225V24.7482C34.4177 26.61 35.6111 28.0394 36.0326 28.1384C36.3802 28.2437 36.85 27.5098 36.85 27.5098C37.0925 27.0727 37.4704 26.446 37.5812 24.8123V24.7812C37.6768 15.088 37.7791 13.0575 37.8492 12.7936L37.8142 12.8275L37.8492 12.7249L37.8824 12.2274V12.1623C37.8824 11.5017 37.5045 10.7678 36.7155 9.97155C36.7496 9.93856 36.7884 9.86892 36.7884 9.86892C37.4704 8.97648 37.9203 8.27553 38.2631 7.81374ZM41.1481 11.1691C41.2798 11.1325 41.419 11.1325 41.5582 11.0995C42.0763 11.0005 42.4457 10.8686 42.9287 10.7678C43.48 10.6001 44.6809 10.4352 44.6809 10.4352C45.9539 10.1695 46.9796 9.97154 48.012 9.80295C49.9318 9.50333 51.8536 9.37231 55.4243 9.47493C55.4243 9.47493 56.595 9.57297 57.0373 9.57297C57.4862 9.57297 58.2079 9.63894 58.5129 9.10109C58.7592 8.67961 58.3472 8.0767 57.9645 7.74227C57.4862 7.25115 55.9102 6.28724 54.4336 6.51631C53.4353 6.68032 53.5461 6.64825 52.4389 6.91396C51.9644 7.05507 50.2757 7.34828 48.012 7.6818C46.1651 7.97683 43.8891 8.27554 41.5582 8.50919C41.0041 8.57607 40.4567 8.64204 39.9149 8.67961C39.6715 8.70802 39.4935 8.70801 39.2955 8.74008C38.946 8.77673 38.7102 8.80972 38.641 8.90318C38.4336 9.07177 38.0898 9.30725 38.5776 9.73698C38.5776 9.73698 38.8778 10.0073 39.2955 10.3032C39.7691 10.6368 40.3885 11.0335 40.9397 11.1691H41.1481ZM53.0962 12.2622C52.6122 11.7968 51.9294 11.433 50.8951 11.433H50.8581C50.2757 11.4605 49.3153 11.5998 48.012 11.8636C47.8017 11.9012 47.6332 11.9653 47.4267 11.9956C45.7465 12.3639 44.4725 12.5939 43.5794 12.658C43.2043 12.7249 42.4845 12.7936 42.2809 13.0575C42.1776 13.1922 42.3387 13.6275 42.7563 13.9875C42.7563 13.9875 43.5103 14.7187 45.0929 14.6546C45.0929 14.6546 46.2551 14.5217 48.012 14.3165C48.8379 14.2184 49.767 14.0865 50.7937 13.9555L51.9294 13.7869C52.6511 13.6888 53.3292 13.7264 53.6105 13.4607C53.8483 13.2252 53.5082 12.6251 53.0962 12.2622ZM176.32 11.8655C176.198 12.1009 176.441 12.3566 176.63 12.5215C176.704 12.5435 176.776 12.6168 176.871 12.6599C177.166 12.8046 177.594 12.9888 178.134 13.0584H178.202C178.491 13.0584 178.825 12.9888 179.262 12.8706L179.31 12.8514C179.53 12.7542 179.707 12.79 181.762 12.462C181.997 13.3058 182.144 14.7316 182.216 16.7354V18.7366C182.216 20.6048 182.072 21.237 181.997 21.4441C181.878 21.4441 181.64 21.3992 181.205 21.3039C180.12 21.0492 179.005 20.4655 179.127 20.9273C179.169 21.1647 179.856 21.7511 180.384 22.3998C180.791 22.9156 181.06 23.2226 181.371 23.7806C181.687 24.3368 181.832 24.8316 182.339 24.6703C182.819 24.5081 183.449 24.0582 183.909 23.4764C184.172 23.1053 184.389 22.6609 184.438 22.1918C184.485 21.4936 184.172 20.4179 184.121 19.5255C184.025 18.458 184.025 16.1747 184.025 15.7816V14.705C184.025 14.3321 184.097 14.0718 184.194 13.676C184.266 13.5129 184.344 13.3507 184.344 13.1849C184.344 13.0722 184.312 12.9549 184.266 12.8624C184.194 12.6021 184.002 12.3694 183.708 12.1578C184.754 12.046 186.013 11.7473 187.027 11.7473C187.756 11.7253 188.435 11.7042 188.748 11.7042C189.039 11.7042 189.933 11.7042 190.125 11.378C190.437 10.9089 190.048 10.328 189.327 9.8396C188.791 9.48684 187.919 9.25319 186.888 9.48684C186.744 9.50883 186 9.7434 185.515 9.8845C184.937 10.0952 181.531 10.8622 177.36 11.5411C177.19 11.5594 177.021 11.5869 176.871 11.6107C176.609 11.6602 176.393 11.7042 176.32 11.8655ZM179.242 14.5492C178.815 15.4206 177.968 16.4761 176.832 17.7149C175.34 19.345 175.783 22.2156 177.468 20.8788C179.044 19.6262 179.747 16.5256 179.242 14.5492ZM179.293 7.89437C179.558 8.06571 180.185 8.4423 181.404 8.17017C182.251 8.00157 186.455 6.96894 186.761 6.69681C186.761 6.69681 186.917 6.60976 186.953 6.48881C187.001 6.23318 186.455 5.80986 186.283 5.688C185.63 5.22162 184.782 5.34898 184.565 5.41403C184.349 5.45527 184.086 5.56064 183.566 5.7503L183.543 5.77046C183.087 5.98212 181.209 6.56945 179.925 6.88831C179.376 7.01292 178.86 7.0569 178.86 7.26581C178.842 7.51778 179.03 7.70654 179.293 7.89437ZM188.88 16.6374C187.633 15.5873 186.184 14.8388 184.978 14.256C184.978 14.256 186.18 17.4593 187.387 19.2258C188.238 20.4729 189.418 20.5388 189.986 19.8691C190.63 19.1086 190.162 17.7131 188.88 16.6374ZM160.696 17.4959C160.166 17.1313 159.843 16.86 158.993 16.97C158.62 17.0176 157.355 17.2046 155.81 17.4025C155.766 16.5366 155.764 14.9395 155.767 14.0499C156.014 14.0132 156.229 13.983 156.392 13.9628C156.575 13.9399 156.775 13.9161 156.981 13.8886C156.979 13.9087 156.979 13.9234 156.979 13.9234C156.945 14.442 157.06 15.887 158.065 16.2241C158.993 16.5348 159.352 15.7165 159.279 15.1439C159.189 14.4649 158.272 13.9875 157.557 13.808C157.643 13.796 157.725 13.786 157.81 13.7713C157.81 13.7713 159.113 13.6568 159.243 13.512C159.373 13.3645 159.19 13.0859 158.979 12.9018C158.73 12.6663 158.375 12.4326 157.85 12.4345H157.828C157.533 12.45 157.044 12.5252 156.38 12.6626C156.353 12.669 156.123 12.7194 155.775 12.7955C155.776 12.6727 155.776 12.5573 155.777 12.4675C155.779 12.1294 155.844 11.8893 155.937 11.5347C156.005 11.3872 156.076 11.2369 156.077 11.0876C156.077 10.984 156.047 10.8787 156.007 10.7925C155.977 10.6798 155.916 10.5708 155.833 10.4672C156.093 10.4306 156.318 10.3994 156.49 10.3793C156.94 10.3261 157.47 10.2666 158.007 10.1832C158.007 10.1832 159.403 10.0687 159.542 9.91107C159.684 9.75531 159.487 9.45844 159.263 9.25869C158.998 9.0058 158.621 8.75383 158.056 8.75383H158.035C157.718 8.7694 157.195 8.84454 156.483 8.98747C156.37 9.00763 152.909 9.78646 151.329 9.90466C150.603 9.9578 150.34 9.96513 150.341 10.1521C150.343 10.2336 150.566 10.5671 150.923 10.7751C151.342 11.0188 151.72 11.1041 152.172 11.0344C152.492 10.9831 153.121 10.8832 153.817 10.7733C153.935 11.3533 154.02 12.1458 154.074 13.1482C153.174 13.3242 152.206 13.4909 151.565 13.5422C150.886 13.5945 150.642 13.6045 150.646 13.7777C150.649 13.8565 150.856 14.1653 151.191 14.3568C151.584 14.5849 151.938 14.6619 152.361 14.5932C152.692 14.5401 153.384 14.4264 154.121 14.3064C154.121 14.4741 154.12 14.6399 154.116 14.8076C154.115 15.1365 154.1 16.828 154.085 17.6114C152.547 17.7882 150.949 17.9367 149.769 17.9577C148.911 17.9715 148.657 18.0439 148.653 18.217C148.652 18.3398 148.859 18.6678 149.228 18.9079C149.596 19.1507 150.098 19.355 150.721 19.2771C151.738 19.1489 153.922 18.7677 156.27 18.6678C158.348 18.5744 159.126 18.5854 159.899 18.6064C160.67 18.6266 161.138 18.5615 161.247 18.3471C161.37 18.1034 161.14 17.8084 160.696 17.4959ZM175.099 14.8552C174.648 14.8791 173.564 13.8721 172.35 13.2939C172.349 13.5138 172.348 13.7337 172.348 13.9601C172.348 17.9192 172.612 21.3965 172.471 22.6765C172.356 23.7119 172.058 24.8966 171.485 24.8966C170.972 24.8966 170.622 23.9281 170.345 22.7306C170.064 21.511 170.715 20.8137 170.715 19.4613C170.715 16.8756 170.874 12.3089 170.576 9.84235C170.474 9.0058 170.276 7.85405 169.955 7.13387C169.802 6.84158 169.848 6.61434 170.014 6.47874C170.562 6.02518 171.474 6.57861 172.2 6.54929C173.547 6.49248 174.338 5.5698 174.653 5.5698C175.121 5.5698 176.871 6.40086 177.048 7.03766C177.112 7.27131 176.805 7.58559 176.304 7.97683C175.375 8.7016 174.839 9.28984 174.824 10.0934C174.799 11.3542 176.513 12.5692 176.287 13.7612C176.18 14.3293 175.746 14.8213 175.099 14.8552ZM173.87 12.6003C173.849 12.4977 173.502 11.0986 173.502 10.098C173.502 9.09743 173.415 8.79323 173.678 7.83298L172.465 8.03639C172.416 9.19363 172.372 10.7925 172.356 12.647C172.726 12.7002 173.468 12.7936 173.718 12.8312C173.801 12.844 173.919 12.7836 173.87 12.6003ZM163.796 7.4903C163.357 8.11427 163.415 8.2737 163.415 9.32008C163.415 11.0775 163.443 12.7103 163.505 14.9166C163.698 18.2995 163.799 21.358 163.703 22.4978C163.608 23.6413 162.862 25.1293 162.321 25.1293C161.595 25.1293 160.736 23.492 160.505 23.0109C160.317 22.6188 160.109 22.3082 159.993 22.2211C154.246 22.2211 150.632 22.2046 148.485 22.2944C148.46 23.503 148.144 24.2708 147.662 24.2708C146.971 24.2708 146.259 22.6499 146.384 21.0428C146.53 19.2093 146.801 18.4745 146.79 15.9181C146.78 14.2304 146.846 9.97796 146.717 8.64296C146.587 7.30704 146.208 6.9836 145.988 6.64825C145.772 6.31381 145.754 6.07375 145.807 5.90882C145.85 5.76771 146.101 5.64493 146.416 5.64952C146.787 5.65226 147.377 5.84101 148.063 6.16354C153.67 5.77596 158.35 5.42228 160.361 4.91009C160.714 4.82121 161.64 4.41897 161.753 4.40431C162.537 4.30719 162.88 5.0796 164.126 6.00686C164.399 6.20936 164.508 6.46591 163.796 7.4903ZM161.604 13.2426C161.453 8.23064 161.224 7.21542 160.947 6.93137C160.671 6.64733 160.815 6.61893 159.976 6.61893C158.143 6.61893 153.408 6.94878 148.445 7.56451L148.474 20.9365C151.04 20.8156 153.834 20.6112 157.649 20.4005C159.115 20.3199 160.124 20.3025 160.363 20.3134C160.696 20.3281 160.871 20.6149 161.224 20.8522C161.534 19.8031 161.663 17.2485 161.604 13.2426ZM143.876 27.3815C144.525 27.7471 144.946 27.2872 144.341 26.763C144.336 26.7566 144.334 26.7521 144.331 26.7484C140.874 23.9025 138.658 19.5282 138.658 14.617C138.658 9.70766 140.874 5.33249 144.331 2.48656C144.334 2.4829 144.335 2.47832 144.341 2.47282C144.946 1.94872 144.527 1.48692 143.877 1.85342C139.368 4.6572 136.415 9.3265 136.415 14.617C136.415 19.9075 139.368 24.5759 143.876 27.3815ZM189.994 2.48656C193.452 5.33249 195.667 9.70766 195.667 14.617C195.667 19.5282 193.451 23.9025 189.994 26.7484C189.989 26.7521 189.987 26.7566 189.984 26.763C189.379 27.2872 189.799 27.7471 190.447 27.3815C194.957 24.5759 197.91 19.9075 197.91 14.617C197.91 9.3265 194.955 4.6572 190.447 1.85342C189.799 1.48692 189.379 1.94872 189.984 2.47282C189.987 2.47832 189.989 2.4829 189.994 2.48656Z" fill="#1D4E9E"/>
</svg>
