<svg width="76" height="71" viewBox="0 0 76 71" fill="none" xmlns="http://www.w3.org/2000/svg">
<path d="M74.1424 23.7142C76.7496 31.7382 76.1491 40.5095 72.4503 48.4315C68.7514 56.3535 62.2002 62.8995 53.9891 66.878C45.7779 70.8564 36.4528 72.0028 27.7111 70.1085C18.9695 68.2141 11.3925 63.4049 6.35932 56.5564C1.32618 49.7079 -0.82844 41.2753 0.28765 32.7936C1.40374 24.3119 5.71634 16.345 12.4404 10.3431C19.1645 4.34127 27.8531 0.703475 36.9245 0.0919108C45.9959 -0.519652 54.8471 1.93568 61.8669 7.01097L37.8696 35.5L74.1424 23.7142Z" fill="url(#paint0_linear_174_2381)"/>
<defs>
<linearGradient id="paint0_linear_174_2381" x1="26.9892" y1="2.01354" x2="48.75" y2="68.9864" gradientUnits="userSpaceOnUse">
<stop stop-color="#F2F2F7"/>
<stop offset="1" stop-color="#C2BEB7"/>
</linearGradient>
</defs>
</svg>
